<?xml version="1.0" encoding="UTF-8"?>
<!DOCTYPE svg PUBLIC "-//W3C//DTD SVG 1.0//EN" "http://www.w3.org/TR/2001/REC-SVG-20010904/DTD/svg10.dtd">
<!-- Creator: CorelDRAW X7 -->
<svg xmlns="http://www.w3.org/2000/svg" xml:space="preserve" width="92.4278mm" height="92.4278mm" version="1.0" style="shape-rendering:geometricPrecision; text-rendering:geometricPrecision; image-rendering:optimizeQuality; fill-rule:evenodd; clip-rule:evenodd"
viewBox="0 0 419 419"
 xmlns:xlink="http://www.w3.org/1999/xlink">
 <defs>
  <style type="text/css">
   <![CDATA[
    .fil1 {fill:#FEFEFE}
    .fil0 {fill:black}
   ]]>
  </style>
 </defs>
 <g id="图层_x0020_1">
  <metadata id="CorelCorpID_0Corel-Layer"/>
  <circle class="fil0" cx="209" cy="209" r="209"/>
  <path class="fil1" d="M218 209l40 -55c3,-4 2,-8 -1,-10 -3,-3 -8,-2 -10,1l-38 52 -37 -52c-3,-3 -7,-4 -10,-1 -4,2 -4,6 -2,10l40 55 -40 56c-2,3 -2,8 2,10 1,1 2,1 4,1 2,0 4,-1 6,-3l37 -52 38 52c1,2 3,3 6,3 1,0 3,0 4,-1 3,-2 4,-7 1,-10l-40 -56z"/>
 </g>
</svg>
