<?xml version="1.0" encoding="UTF-8"?>
<!DOCTYPE svg PUBLIC "-//W3C//DTD SVG 1.0//EN" "http://www.w3.org/TR/2001/REC-SVG-20010904/DTD/svg10.dtd">
<!-- Creator: CorelDRAW X7 -->
<svg xmlns="http://www.w3.org/2000/svg" xml:space="preserve" width="73.2878mm" height="94.4599mm" version="1.0" style="shape-rendering:geometricPrecision; text-rendering:geometricPrecision; image-rendering:optimizeQuality; fill-rule:evenodd; clip-rule:evenodd"
viewBox="0 0 3678 4740"
 xmlns:xlink="http://www.w3.org/1999/xlink">
 <defs>
  <style type="text/css">
   <![CDATA[
    .fil1 {fill:#FEFEFE}
    .fil0 {fill:#b8b8b8}
   ]]>
  </style>
 </defs>
 <g id="图层_x0020_1">
  <metadata id="CorelCorpID_0Corel-Layer"/>
  <g id="_2984929088208">
   <path class="fil0" d="M619 1476c36,23 83,15 109,-20 70,-94 177,-148 294,-148 119,0 231,58 301,156 30,44 103,44 133,0 69,-98 182,-156 301,-156 132,0 254,71 320,186 14,25 41,41 71,41 2,0 5,0 8,0 32,-4 59,-26 69,-56 50,-151 190,-253 349,-253 125,0 240,62 308,167 12,19 32,32 54,36 22,4 45,-2 63,-15 212,-158 357,-350 429,-571 14,-43 -8,-89 -51,-103 -212,-72 -408,-109 -580,-109 -213,0 -358,56 -449,111 -90,-470 -396,-659 -518,-717 -15,-15 -35,-25 -58,-25l-17 0c-22,0 -42,10 -57,25 -122,58 -428,247 -519,717 -91,-55 -235,-111 -448,-111 -173,0 -368,37 -581,109 -42,14 -65,60 -51,103 82,250 262,469 520,633z"/>
   <path class="fil0" d="M3678 2329c0,-183 -94,-351 -247,-448 -12,-170 -106,-319 -245,-407 -29,24 -58,48 -89,71 -43,32 -94,48 -147,48 -14,0 -28,-1 -42,-3 -67,-12 -126,-51 -163,-108 -38,-58 -102,-93 -171,-93 -88,0 -166,57 -194,141 -30,92 -112,157 -208,167 -8,1 -16,1 -24,1 -88,0 -170,-47 -213,-123 -37,-64 -105,-104 -178,-104 -66,0 -129,33 -167,87 -45,64 -120,103 -201,103 -80,0 -155,-39 -200,-102 -39,-55 -101,-88 -167,-88 -65,0 -123,30 -163,83 -74,99 -224,127 -328,60 -56,-36 -108,-74 -157,-115 -129,98 -211,251 -211,422 0,33 4,66 10,99 -109,100 -173,242 -173,391 0,143 58,279 159,378 -50,83 -77,178 -77,276 0,228 142,424 350,499 -16,50 -23,102 -23,155 0,228 144,427 356,501 74,212 274,357 502,357 79,0 156,-18 227,-51 100,134 256,214 427,214 158,0 306,-70 406,-190 54,18 109,27 166,27 251,0 467,-180 519,-421 240,-51 421,-268 421,-519 0,-39 -5,-78 -14,-116 159,-95 259,-267 259,-456 0,-138 -54,-270 -149,-368 95,-98 149,-230 149,-368z"/>
   <path class="fil1" d="M3166 2253c-86,95 -193,133 -295,133 -78,0 -154,-22 -216,-59 -146,-84 -261,-266 -191,-482 14,-43 61,-67 103,-53 43,14 67,60 53,103 -45,139 35,243 117,291 81,47 211,64 308,-43 31,-34 82,-36 116,-6 33,31 35,82 5,116z"/>
   <path class="fil1" d="M2083 4228c-61,32 -133,52 -206,52 -107,0 -218,-41 -305,-143 -29,-35 -25,-86 10,-116 34,-29 86,-25 115,10 94,110 225,97 308,53 83,-45 166,-146 125,-286 -12,-43 13,-88 56,-101 44,-12 89,12 102,56 62,218 -58,395 -205,475z"/>
   <path class="fil1" d="M1242 3612c-18,0 -37,-1 -55,-3 -166,-22 -343,-144 -362,-371 -4,-45 29,-85 74,-88 45,-4 85,29 89,74 12,145 126,210 220,222 93,12 220,-22 268,-159 15,-43 62,-65 104,-50 43,15 65,62 50,104 -67,191 -235,271 -388,271z"/>
   <path class="fil1" d="M594 2418c-31,-33 -29,-85 4,-116 34,-30 85,-28 116,5 99,107 229,89 310,41 81,-48 160,-152 114,-290 -14,-43 9,-89 52,-103 43,-14 89,9 103,52 72,215 -42,397 -186,482 -63,37 -140,60 -220,60 -101,0 -207,-37 -293,-131z"/>
   <path class="fil1" d="M2816 3497c-64,37 -141,60 -220,60 -102,0 -207,-38 -294,-132 -30,-33 -28,-84 5,-115 33,-31 85,-28 116,5 98,107 228,89 310,41 81,-48 160,-153 114,-290 -14,-43 9,-89 52,-103 43,-15 89,9 103,51 71,216 -42,398 -186,483z"/>
   <path class="fil1" d="M1635 2387c45,-4 84,29 88,74 13,145 127,210 221,222 93,12 219,-22 267,-159 15,-43 62,-65 105,-50 42,15 64,61 49,104 -67,191 -234,271 -387,271 -19,0 -37,-1 -55,-4 -166,-21 -343,-144 -363,-370 -3,-45 30,-85 75,-88z"/>
  </g>
 </g>
</svg>
