<?xml version="1.0" encoding="UTF-8"?>
<!DOCTYPE svg PUBLIC "-//W3C//DTD SVG 1.0//EN" "http://www.w3.org/TR/2001/REC-SVG-20010904/DTD/svg10.dtd">
<!-- Creator: CorelDRAW X7 -->
<svg xmlns="http://www.w3.org/2000/svg" xml:space="preserve" width="77.9016mm" height="94.174mm" version="1.0" style="shape-rendering:geometricPrecision; text-rendering:geometricPrecision; image-rendering:optimizeQuality; fill-rule:evenodd; clip-rule:evenodd"
viewBox="0 0 210 254"
 xmlns:xlink="http://www.w3.org/1999/xlink">
 <defs>
  <style type="text/css">
   <![CDATA[
    .fil1 {fill:#FEFEFE}
    .fil0 {fill:#b8b8b8}
   ]]>
  </style>
 </defs>
 <g id="图层_x0020_1">
  <metadata id="CorelCorpID_0Corel-Layer"/>
  <g id="_2171835503696">
   <path class="fil0" d="M191 147l0 -141c0,-5 -2,-6 -8,-6l-178 0c-4,0 -5,2 -5,5l0 240c0,1 0,1 2,1l5 0c1,0 1,0 1,2l0 4c0,2 1,2 3,2l180 0c2,0 3,-1 3,-2l0 -5c0,0 0,-1 1,-1l12 0c2,0 3,0 3,-3l0 -85c0,-3 -1,-4 -4,-4 -7,0 -10,-3 -15,-7z"/>
   <path class="fil1" d="M83 53c0,-1 0,-1 1,-1 3,0 5,0 8,0 3,1 6,3 6,7 0,7 0,14 0,21 0,3 1,4 3,4 1,0 2,0 2,0 2,0 3,-1 3,-3 0,-4 0,-8 0,-12 0,-5 0,-11 0,-16 0,0 0,-1 1,-1 0,0 1,0 2,0 0,1 0,1 0,1 0,10 0,20 0,30 0,4 -3,6 -6,7 -2,0 -3,0 -5,-1 -2,-1 -3,-3 -3,-5 0,-1 0,-2 0,-2 0,-7 0,-14 0,-20 0,-3 -1,-4 -3,-4 -1,0 -1,0 -2,0 -2,0 -4,0 -6,0 0,0 -1,0 -1,-1 0,-1 0,-3 0,-4zm7 47c4,0 8,0 12,0 2,0 3,0 4,1 2,1 3,3 3,5 0,6 0,12 0,17 0,0 0,1 0,1 -1,0 -2,0 -2,0 -1,0 -1,0 -1,-1 0,0 0,0 0,0 0,-5 0,-9 0,-14 0,0 0,-1 0,-1 0,-1 -1,-2 -3,-3 0,0 -1,0 -1,0 -4,0 -8,0 -12,0 -2,0 -4,-1 -5,-3 -1,-1 -2,-2 -2,-4 0,-5 0,-11 0,-17 0,0 0,0 1,0 0,0 1,0 2,0 0,0 0,0 0,0 0,0 0,0 0,0 0,5 0,10 0,15 0,3 2,4 4,4zm-8 27c1,0 2,0 3,0 0,1 0,1 0,2 0,6 0,13 0,19 0,2 1,3 3,4 2,0 3,0 5,-1 1,0 1,-1 1,-2 0,-7 0,-14 0,-20 0,-1 0,-1 0,-2 1,0 2,0 3,0 0,1 0,1 0,2 0,6 0,13 0,20 0,1 1,2 2,3 2,0 4,0 6,-1 1,0 1,-1 1,-2 0,-7 0,-14 0,-20 0,-1 0,-1 0,-2 1,0 1,0 2,0 0,1 0,1 0,2l1 20c0,5 -3,7 -8,7 -2,0 -4,0 -5,-2 -4,2 -7,3 -11,1 -2,-1 -2,-2 -3,-4 0,0 0,-1 0,-1 0,-7 0,-14 0,-21 0,-1 0,-1 0,-2z"/>
  </g>
 </g>
</svg>
