<?xml version="1.0" encoding="UTF-8"?>
<!DOCTYPE svg PUBLIC "-//W3C//DTD SVG 1.0//EN" "http://www.w3.org/TR/2001/REC-SVG-20010904/DTD/svg10.dtd">
<!-- Creator: CorelDRAW X7 -->
<svg xmlns="http://www.w3.org/2000/svg" xml:space="preserve" width="101.976mm" height="90.2287mm" version="1.0" style="shape-rendering:geometricPrecision; text-rendering:geometricPrecision; image-rendering:optimizeQuality; fill-rule:evenodd; clip-rule:evenodd"
viewBox="0 0 1457 1289"
 xmlns:xlink="http://www.w3.org/1999/xlink">
 <defs>
  <style type="text/css">
   <![CDATA[
    .fil0 {fill:black}
   ]]>
  </style>
 </defs>
 <g id="图层_x0020_1">
  <metadata id="CorelCorpID_0Corel-Layer"/>
  <g id="_2984924945600">
   <g>
    <path class="fil0" d="M1002 319c0,75 61,136 136,136 76,0 137,-61 137,-136 0,-76 -61,-137 -137,-137 -75,0 -136,61 -136,137zm362 -226c-125,-124 -327,-124 -451,0 -51,51 -81,114 -90,180l0 0 -291 442c-40,2 -78,12 -114,30l-225 -176c-52,-41 -127,-32 -168,20 -40,52 -31,128 21,168l222 174c-24,95 1,200 75,274 112,112 294,112 407,0 69,-69 95,-164 80,-253l354 -318 0 0c66,-9 129,-39 180,-90 124,-124 124,-326 0,-451zm-818 1100c-105,0 -191,-85 -191,-191 0,-1 0,-2 0,-3l95 74c22,17 48,26 74,26 35,0 70,-16 94,-46 40,-52 31,-128 -21,-168l-90 -71c13,-2 26,-4 39,-4 106,0 192,86 192,192 0,106 -86,191 -192,191zm592 -647c-125,0 -227,-102 -227,-227 0,-126 102,-228 227,-228 126,0 228,102 228,228 0,125 -102,227 -228,227z"/>
   </g>
   <g>
   </g>
   <g>
   </g>
   <g>
   </g>
   <g>
   </g>
   <g>
   </g>
   <g>
   </g>
   <g>
   </g>
   <g>
   </g>
   <g>
   </g>
   <g>
   </g>
   <g>
   </g>
   <g>
   </g>
   <g>
   </g>
   <g>
   </g>
   <g>
   </g>
  </g>
 </g>
</svg>
