<?xml version="1.0" encoding="UTF-8"?>
<!DOCTYPE svg PUBLIC "-//W3C//DTD SVG 1.0//EN" "http://www.w3.org/TR/2001/REC-SVG-20010904/DTD/svg10.dtd">
<!-- Creator: CorelDRAW X7 -->
<svg xmlns="http://www.w3.org/2000/svg" xml:space="preserve" width="94.7518mm" height="94.4599mm" version="1.0" style="shape-rendering:geometricPrecision; text-rendering:geometricPrecision; image-rendering:optimizeQuality; fill-rule:evenodd; clip-rule:evenodd"
viewBox="0 0 2151 2144"
 xmlns:xlink="http://www.w3.org/1999/xlink">
 <defs>
  <style type="text/css">
   <![CDATA[
    .str0 {stroke:#FEFEFE;stroke-width:90.8044}
    .fil2 {fill:none}
    .fil1 {fill:#FEFEFE}
    .fil0 {fill:#332C2B}
   ]]>
  </style>
 </defs>
 <g id="图层_x0020_1">
  <metadata id="CorelCorpID_0Corel-Layer"/>
  <path class="fil0" d="M1300 6l290 0c308,0 561,253 561,562l0 1015c0,309 -253,561 -561,561l-290 0c-17,0 -31,-13 -31,-30l0 -2077c0,-17 14,-31 31,-31z"/>
  <path class="fil0" d="M851 0l-290 0c-308,0 -561,253 -561,561l0 1016c0,308 253,561 561,561l290 0c17,0 31,-14 31,-31l0 -2077c0,-16 -14,-30 -31,-30z"/>
  <circle class="fil1" cx="440" cy="1233" r="101"/>
  <circle class="fil1" cx="440" cy="1632" r="101"/>
  <circle class="fil1" cx="651" cy="1434" r="101"/>
  <circle class="fil1" cx="230" cy="1434" r="101"/>
  <circle class="fil2 str0" cx="467" cy="687" r="158"/>
  <circle class="fil2 str0" cx="1684" cy="1434" r="158"/>
  <circle class="fil1" cx="1711" cy="487" r="101"/>
  <circle class="fil1" cx="1711" cy="886" r="101"/>
  <circle class="fil1" cx="1500" cy="688" r="101"/>
  <circle class="fil1" cx="1920" cy="688" r="101"/>
 </g>
</svg>
