<?xml version="1.0" encoding="UTF-8"?>
<!DOCTYPE svg PUBLIC "-//W3C//DTD SVG 1.0//EN" "http://www.w3.org/TR/2001/REC-SVG-20010904/DTD/svg10.dtd">
<!-- Creator: CorelDRAW X7 -->
<svg xmlns="http://www.w3.org/2000/svg" xml:space="preserve" width="88.8602mm" height="94.3452mm" version="1.0" style="shape-rendering:geometricPrecision; text-rendering:geometricPrecision; image-rendering:optimizeQuality; fill-rule:evenodd; clip-rule:evenodd"
viewBox="0 0 298 317"
 xmlns:xlink="http://www.w3.org/1999/xlink">
 <defs>
  <style type="text/css">
   <![CDATA[
    .str2 {stroke:#FEFEFE;stroke-width:3.35518}
    .str0 {stroke:#FEFEFE;stroke-width:0.671036}
    .str1 {stroke:#FEFEFE;stroke-width:3.35518;stroke-linejoin:round}
    .fil1 {fill:none}
    .fil2 {fill:#FEFEFE}
.fil0 {fill:#b8b8b8}
   ]]>
  </style>
 </defs>
 <g id="图层_x0020_1">
  <metadata id="CorelCorpID_0Corel-Layer"/>
  <g id="_2171932371760">
   <path class="fil0 str0" d="M13 242l38 -236c0,-2 1,-3 3,-3l34 -3c1,0 2,0 3,1l205 74c2,1 2,1 2,3l-21 156 5 2c0,0 1,0 1,2l-4 24 -3 23c-1,3 -2,3 -4,4l-110 13 -111 14c-2,0 -3,0 -5,0l-43 -8c-4,0 -3,-3 -2,-4l7 -58c0,0 0,-1 1,-2l4 -2z"/>
   <path class="fil1 str1" d="M90 0c-12,83 -24,162 -36,245 0,2 0,4 2,3l222 -15"/>
   <polyline class="fil1 str1" points="48,26 59,26 57,34 47,34 "/>
   <polyline class="fil1 str1" points="44,48 55,48 54,55 43,55 "/>
   <path class="fil2" d="M74 23l0 0c2,0 3,2 3,4l-31 198c0,2 -2,3 -3,2l0 0c-2,0 -3,-2 -3,-4l30 -198c1,-2 2,-3 4,-2z"/>
   <path class="fil0 str2" d="M40 77l11 0c0,0 1,1 1,1l-14 92c0,1 0,1 -1,1l-13 0 16 -94z"/>
   <polyline class="fil1 str1" points="17,214 28,214 27,223 16,223 "/>
   <line class="fil1 str2" x1="12" y1="241" x2="55" y2= "248" />
  </g>
 </g>
</svg>
